<svg width="349" height="36" viewBox="0 0 349 36" fill="none" xmlns="http://www.w3.org/2000/svg">
<path d="M15.696 27.612C13.824 27.612 12.888 26.808 12.888 25.2C12.888 24.672 12.96 24.072 13.104 23.4C13.272 22.704 13.5 21.816 13.788 20.736C14.124 19.608 14.376 18.648 14.544 17.856C14.712 17.064 14.796 16.356 14.796 15.732C14.796 14.1 14.076 13.284 12.636 13.284C12.228 13.284 11.832 13.332 11.448 13.428L8.568 27H3.384L8.604 2.52C6.996 3.192 5.748 4.2 4.86 5.544C3.996 6.888 3.564 8.508 3.564 10.404C3.564 11.292 3.648 11.916 3.816 12.276C3.984 12.612 4.068 12.804 4.068 12.852C2.772 12.852 1.8 12.588 1.152 12.06C0.528 11.508 0.216 10.608 0.216 9.36C0.216 7.824 0.84 6.336 2.088 4.896C3.36 3.432 4.98 2.256 6.948 1.368C8.916 0.455998 10.884 -2.14577e-06 12.852 -2.14577e-06C13.188 -2.14577e-06 13.668 0.0239983 14.292 0.0719991L11.952 11.088L15.66 6.12C18.612 2.136 20.1 0.155998 20.124 0.179998H23.904L13.896 11.7L15.156 11.664C16.788 11.664 17.94 12.012 18.612 12.708C19.284 13.38 19.62 14.316 19.62 15.516C19.62 16.212 19.536 16.956 19.368 17.748C19.2 18.516 18.96 19.476 18.648 20.628C18.456 21.372 18.276 22.104 18.108 22.824C17.94 23.544 17.856 24.144 17.856 24.624C17.856 25.176 17.976 25.668 18.216 26.1C18.48 26.532 18.828 26.832 19.26 27C17.796 27.408 16.608 27.612 15.696 27.612ZM26.8771 27.144C25.1011 27.144 23.6971 26.688 22.6651 25.776C21.6331 24.864 21.1171 23.424 21.1171 21.456C21.1171 19.824 21.4531 18.012 22.1251 16.02C22.7971 14.028 23.8771 12.312 25.3651 10.872C26.8531 9.408 28.7251 8.676 30.9811 8.676C34.0531 8.676 35.5891 10.596 35.5891 14.436V14.472C35.6611 14.496 35.7931 14.508 35.9851 14.508C36.7771 14.508 37.6891 14.304 38.7211 13.896C39.7531 13.464 40.6891 12.948 41.5291 12.348L41.8531 13.32C41.1571 14.064 40.2451 14.7 39.1171 15.228C38.0131 15.732 36.8011 16.092 35.4811 16.308C35.2891 18.492 34.7971 20.4 34.0051 22.032C33.2131 23.664 32.1931 24.924 30.9451 25.812C29.6971 26.7 28.3411 27.144 26.8771 27.144ZM28.3171 23.904C28.8931 23.904 29.4691 23.58 30.0451 22.932C30.6211 22.26 31.1251 21.36 31.5571 20.232C31.9891 19.08 32.3011 17.808 32.4931 16.416C31.8451 16.272 31.5211 15.768 31.5211 14.904C31.5211 13.92 31.8931 13.272 32.6371 12.96C32.5891 12.168 32.4691 11.628 32.2771 11.34C32.0851 11.028 31.7491 10.872 31.2691 10.872C30.4771 10.872 29.7091 11.448 28.9651 12.6C28.2211 13.752 27.6211 15.132 27.1651 16.74C26.7091 18.348 26.4811 19.764 26.4811 20.988C26.4811 22.14 26.6131 22.92 26.8771 23.328C27.1411 23.712 27.6211 23.904 28.3171 23.904ZM41.5454 27.216C40.1534 27.216 39.0614 26.868 38.2694 26.172C37.5014 25.452 37.1174 24.384 37.1174 22.968C37.1174 22.392 37.1774 21.816 37.2974 21.24L39.8894 9H45.0734L42.4814 21.24C42.3614 21.84 42.3014 22.272 42.3014 22.536C42.3014 23.328 42.7094 23.724 43.5254 23.724C44.6294 23.724 45.6494 23.028 46.5854 21.636C47.5454 20.244 48.3134 18.588 48.8894 16.668C49.4654 14.748 49.7534 13.092 49.7534 11.7C49.7054 11.82 49.5494 11.916 49.2854 11.988C49.0214 12.036 48.7934 12.06 48.6014 12.06C48.1934 12.06 47.8694 11.868 47.6294 11.484C47.4134 11.1 47.3054 10.68 47.3054 10.224C47.3054 9.648 47.4854 9.18 47.8454 8.82C48.2294 8.46 48.7934 8.28 49.5374 8.28C50.3294 8.28 50.9054 8.58 51.2654 9.18C51.6254 9.756 51.8054 10.5 51.8054 11.412C51.8054 13.572 51.4334 15.888 50.6894 18.36C49.9454 20.808 48.8054 22.896 47.2694 24.624C45.7334 26.352 43.8254 27.216 41.5454 27.216ZM56.6677 27.216C55.2997 27.216 54.1597 26.748 53.2477 25.812C52.3357 24.876 51.8797 23.412 51.8797 21.42C51.8797 19.644 52.2277 17.784 52.9237 15.84C53.6437 13.872 54.6997 12.216 56.0917 10.872C57.5077 9.504 59.1877 8.82 61.1317 8.82C62.1157 8.82 62.8477 8.988 63.3277 9.324C63.8077 9.66 64.0477 10.104 64.0477 10.656V10.908L64.4437 9H69.6277L67.0357 21.24C66.9397 21.6 66.8917 21.984 66.8917 22.392C66.8917 23.424 67.3837 23.94 68.3677 23.94C69.0397 23.94 69.6157 23.628 70.0957 23.004C70.5997 22.38 70.9957 21.564 71.2837 20.556H72.7957C71.9077 23.148 70.8037 24.912 69.4837 25.848C68.1877 26.76 66.8797 27.216 65.5597 27.216C64.5517 27.216 63.7357 26.94 63.1117 26.388C62.5117 25.812 62.1517 24.984 62.0317 23.904C61.3357 24.888 60.5557 25.692 59.6917 26.316C58.8517 26.916 57.8437 27.216 56.6677 27.216ZM59.0077 23.724C59.6077 23.724 60.1957 23.448 60.7717 22.896C61.3717 22.32 61.7797 21.54 61.9957 20.556L63.7237 12.42C63.7237 12.108 63.6037 11.808 63.3637 11.52C63.1237 11.208 62.7517 11.052 62.2477 11.052C61.2877 11.052 60.4237 11.616 59.6557 12.744C58.8877 13.848 58.2877 15.192 57.8557 16.776C57.4237 18.336 57.2077 19.716 57.2077 20.916C57.2077 22.116 57.3757 22.884 57.7117 23.22C58.0717 23.556 58.5037 23.724 59.0077 23.724ZM76.4449 27.216C74.6689 27.216 73.2889 26.76 72.3049 25.848C71.3209 24.912 70.8289 23.46 70.8289 21.492C70.8289 19.836 71.1529 18.012 71.8009 16.02C72.4729 14.028 73.5289 12.312 74.9689 10.872C76.4329 9.408 78.2809 8.676 80.5129 8.676C81.9529 8.676 82.9729 8.988 83.5729 9.612C84.1969 10.236 84.5089 11.028 84.5089 11.988C84.5089 12.828 84.3289 13.476 83.9689 13.932C83.6089 14.388 83.1529 14.616 82.6009 14.616C82.1929 14.616 81.7729 14.472 81.3409 14.184C81.6289 13.392 81.7729 12.684 81.7729 12.06C81.7729 11.604 81.6889 11.244 81.5209 10.98C81.3529 10.716 81.1009 10.584 80.7649 10.584C80.0449 10.584 79.3249 11.172 78.6049 12.348C77.8849 13.524 77.2969 14.952 76.8409 16.632C76.3849 18.312 76.1569 19.824 76.1569 21.168C76.1569 22.344 76.3609 23.148 76.7689 23.58C77.1769 23.988 77.8369 24.192 78.7489 24.192C80.0449 24.192 81.1489 23.892 82.0609 23.292C82.9969 22.692 84.0169 21.78 85.1209 20.556H86.3449C83.6809 24.996 80.3809 27.216 76.4449 27.216ZM97.4613 27.216C96.1893 27.216 95.2653 26.832 94.6893 26.064C94.1133 25.296 93.8253 24.324 93.8253 23.148C93.8253 22.644 93.8853 22.08 94.0053 21.456C94.1253 20.808 94.2453 20.184 94.3653 19.584C94.5093 18.984 94.6053 18.6 94.6533 18.432C94.8453 17.592 95.0253 16.764 95.1933 15.948C95.3613 15.132 95.4453 14.472 95.4453 13.968C95.4453 12.744 95.0133 12.132 94.1493 12.132C93.5733 12.132 93.0453 12.396 92.5653 12.924C92.1093 13.452 91.7373 14.148 91.4493 15.012L88.8933 27H83.7093L88.9293 2.52L94.2573 1.8L92.3133 10.836C93.5133 9.516 94.9173 8.856 96.5253 8.856C97.7493 8.856 98.7213 9.192 99.4413 9.864C100.161 10.536 100.521 11.556 100.521 12.924C100.521 13.62 100.437 14.4 100.269 15.264C100.101 16.104 99.8613 17.136 99.5493 18.36C99.3573 19.104 99.1773 19.836 99.0093 20.556C98.8653 21.252 98.7933 21.804 98.7933 22.212C98.7933 22.692 98.9013 23.064 99.1173 23.328C99.3333 23.592 99.7053 23.724 100.233 23.724C100.809 23.724 101.205 23.652 101.421 23.508C101.277 24.732 100.833 25.656 100.089 26.28C99.3693 26.904 98.4933 27.216 97.4613 27.216ZM117.582 2.952C116.07 3 114.906 3.576 114.09 4.68C113.298 5.784 112.902 7.692 112.902 10.404C112.902 11.292 112.986 11.916 113.154 12.276C113.322 12.612 113.406 12.804 113.406 12.852C112.11 12.852 111.138 12.588 110.49 12.06C109.866 11.508 109.554 10.608 109.554 9.36C109.554 7.656 109.974 6.108 110.814 4.716C111.654 3.3 112.986 2.16 114.81 1.296C116.658 0.431998 118.998 -2.14577e-06 121.83 -2.14577e-06C122.406 -2.14577e-06 123.174 0.0599978 124.134 0.179998C125.862 0.347998 127.086 0.431999 127.806 0.431999C129.078 0.431999 130.158 0.287998 131.046 -2.14577e-06C130.974 0.215998 130.842 0.695998 130.65 1.44C130.458 2.16 130.11 2.784 129.606 3.312C129.126 3.816 128.466 4.152 127.626 4.32C126.21 4.32 124.53 4.092 122.586 3.636L121.074 10.8H126.33L125.754 13.464H120.498L117.582 27H112.398L117.582 2.952ZM130.074 27.216C128.706 27.216 127.566 26.748 126.654 25.812C125.742 24.876 125.286 23.412 125.286 21.42C125.286 19.644 125.634 17.784 126.33 15.84C127.05 13.872 128.106 12.216 129.498 10.872C130.914 9.504 132.594 8.82 134.538 8.82C135.522 8.82 136.254 8.988 136.734 9.324C137.214 9.66 137.454 10.104 137.454 10.656V10.908L137.85 9H143.034L140.442 21.24C140.346 21.6 140.298 21.984 140.298 22.392C140.298 23.424 140.79 23.94 141.774 23.94C142.446 23.94 143.022 23.628 143.502 23.004C144.006 22.38 144.402 21.564 144.69 20.556H146.202C145.314 23.148 144.21 24.912 142.89 25.848C141.594 26.76 140.286 27.216 138.966 27.216C137.958 27.216 137.142 26.94 136.518 26.388C135.918 25.812 135.558 24.984 135.438 23.904C134.742 24.888 133.962 25.692 133.098 26.316C132.258 26.916 131.25 27.216 130.074 27.216ZM132.414 23.724C133.014 23.724 133.602 23.448 134.178 22.896C134.778 22.32 135.186 21.54 135.402 20.556L137.13 12.42C137.13 12.108 137.01 11.808 136.77 11.52C136.53 11.208 136.158 11.052 135.654 11.052C134.694 11.052 133.83 11.616 133.062 12.744C132.294 13.848 131.694 15.192 131.262 16.776C130.83 18.336 130.614 19.716 130.614 20.916C130.614 22.116 130.782 22.884 131.118 23.22C131.478 23.556 131.91 23.724 132.414 23.724ZM166.591 27.216C165.127 27.216 164.047 26.832 163.351 26.064C162.679 25.272 162.343 24.3 162.343 23.148C162.343 22.644 162.403 22.08 162.523 21.456C162.643 20.808 162.763 20.184 162.883 19.584C163.027 18.984 163.123 18.6 163.171 18.432C163.363 17.592 163.543 16.764 163.711 15.948C163.879 15.132 163.963 14.472 163.963 13.968C163.963 12.744 163.531 12.132 162.667 12.132C162.043 12.132 161.491 12.444 161.011 13.068C160.531 13.668 160.147 14.46 159.859 15.444L157.411 27H152.227L154.855 14.58C154.927 14.292 154.963 13.992 154.963 13.68C154.963 12.624 154.603 12.096 153.883 12.096C153.211 12.096 152.623 12.408 152.119 13.032C151.639 13.632 151.255 14.436 150.967 15.444L148.519 27H143.335L147.151 9H152.335L151.939 10.872C153.163 9.504 154.627 8.82 156.331 8.82C158.443 8.82 159.679 9.852 160.039 11.916C161.359 9.876 163.027 8.856 165.043 8.856C166.267 8.856 167.239 9.192 167.959 9.864C168.679 10.536 169.039 11.556 169.039 12.924C169.039 13.62 168.955 14.4 168.787 15.264C168.619 16.104 168.379 17.136 168.067 18.36C167.875 19.104 167.695 19.836 167.527 20.556C167.383 21.252 167.311 21.804 167.311 22.212C167.311 22.692 167.419 23.064 167.635 23.328C167.851 23.592 168.223 23.724 168.751 23.724C169.471 23.724 170.047 23.472 170.479 22.968C170.911 22.44 171.343 21.636 171.775 20.556H173.287C172.399 23.196 171.367 24.972 170.191 25.884C169.039 26.772 167.839 27.216 166.591 27.216ZM177.785 7.056C176.993 7.056 176.321 6.78 175.769 6.228C175.217 5.676 174.941 5.004 174.941 4.212C174.941 3.42 175.217 2.748 175.769 2.196C176.321 1.62 176.993 1.332 177.785 1.332C178.577 1.332 179.249 1.62 179.801 2.196C180.377 2.748 180.665 3.42 180.665 4.212C180.665 5.004 180.377 5.676 179.801 6.228C179.249 6.78 178.577 7.056 177.785 7.056ZM175.337 27.216C174.185 27.216 173.249 26.856 172.529 26.136C171.833 25.416 171.485 24.336 171.485 22.896C171.485 22.296 171.581 21.516 171.773 20.556L174.221 9H179.405L176.813 21.24C176.717 21.6 176.669 21.984 176.669 22.392C176.669 22.872 176.777 23.22 176.993 23.436C177.233 23.628 177.617 23.724 178.145 23.724C178.841 23.724 179.489 23.436 180.089 22.86C180.689 22.26 181.121 21.492 181.385 20.556H182.897C182.009 23.148 180.869 24.912 179.477 25.848C178.085 26.76 176.705 27.216 175.337 27.216ZM184.935 27.216C183.783 27.216 182.847 26.856 182.127 26.136C181.431 25.416 181.083 24.336 181.083 22.896C181.083 22.296 181.179 21.516 181.371 20.556L185.223 2.52L190.551 1.8L186.411 21.24C186.315 21.6 186.267 21.984 186.267 22.392C186.267 22.872 186.375 23.22 186.591 23.436C186.831 23.628 187.215 23.724 187.743 23.724C188.439 23.724 189.087 23.436 189.687 22.86C190.287 22.26 190.719 21.492 190.983 20.556H192.495C191.607 23.148 190.467 24.912 189.075 25.848C187.683 26.76 186.303 27.216 184.935 27.216ZM196.585 36C195.457 36 194.461 35.628 193.597 34.884C192.757 34.164 192.337 33.24 192.337 32.112C192.337 31.056 192.601 30.192 193.129 29.52C193.657 28.848 194.341 28.32 195.181 27.936C196.021 27.552 197.149 27.144 198.565 26.712L198.925 25.128C197.701 26.52 196.237 27.216 194.533 27.216C193.381 27.216 192.445 26.856 191.725 26.136C191.029 25.416 190.681 24.336 190.681 22.896C190.681 22.296 190.777 21.516 190.969 20.556L193.417 9H198.601L196.009 21.24C195.937 21.528 195.901 21.828 195.901 22.14C195.901 23.196 196.261 23.724 196.981 23.724C197.653 23.724 198.229 23.448 198.709 22.896C199.189 22.32 199.573 21.54 199.861 20.556L202.309 9H207.529L203.137 29.88C202.657 32.184 201.805 33.78 200.581 34.668C199.381 35.556 198.049 36 196.585 36ZM195.757 32.796C196.189 32.796 196.597 32.568 196.981 32.112C197.365 31.68 197.665 30.972 197.881 29.988L198.313 27.864C197.041 28.296 196.057 28.8 195.361 29.376C194.665 29.952 194.317 30.696 194.317 31.608C194.317 31.896 194.461 32.16 194.749 32.4C195.037 32.664 195.373 32.796 195.757 32.796ZM223.9 27.576C221.188 27.576 219.196 26.892 217.924 25.524C216.652 24.156 216.016 21.888 216.016 18.72C216.016 16.2 216.436 13.488 217.276 10.584C218.14 7.68 219.508 5.196 221.38 3.132C223.276 1.044 225.676 -2.14577e-06 228.58 -2.14577e-06C230.38 -2.14577e-06 231.832 0.395998 232.936 1.188C234.04 1.98 234.592 3.192 234.592 4.824C234.592 5.856 234.388 6.672 233.98 7.272C233.572 7.848 232.936 8.136 232.072 8.136C231.208 8.136 230.524 7.824 230.02 7.2C230.452 6.984 230.836 6.552 231.172 5.904C231.508 5.256 231.676 4.584 231.676 3.888C231.676 3.24 231.496 2.712 231.136 2.304C230.8 1.896 230.248 1.692 229.48 1.692C228.208 1.692 226.996 2.568 225.844 4.32C224.692 6.048 223.756 8.232 223.036 10.872C222.34 13.512 221.992 16.056 221.992 18.504C221.992 20.328 222.304 21.72 222.928 22.68C223.552 23.64 224.68 24.12 226.312 24.12C227.728 24.12 229.036 23.808 230.236 23.184C231.436 22.56 232.468 21.672 233.332 20.52L234.16 20.88C233.56 22.392 232.672 23.652 231.496 24.66C230.32 25.668 229.06 26.412 227.716 26.892C226.372 27.348 225.1 27.576 223.9 27.576ZM238.483 27.144C236.707 27.144 235.303 26.688 234.271 25.776C233.239 24.864 232.723 23.424 232.723 21.456C232.723 19.824 233.059 18.012 233.731 16.02C234.403 14.028 235.483 12.312 236.971 10.872C238.459 9.408 240.331 8.676 242.587 8.676C245.659 8.676 247.195 10.596 247.195 14.436V14.472C247.267 14.496 247.399 14.508 247.591 14.508C248.383 14.508 249.295 14.304 250.327 13.896C251.359 13.464 252.295 12.948 253.135 12.348L253.459 13.32C252.763 14.064 251.851 14.7 250.723 15.228C249.619 15.732 248.407 16.092 247.087 16.308C246.895 18.492 246.403 20.4 245.611 22.032C244.819 23.664 243.799 24.924 242.551 25.812C241.303 26.7 239.947 27.144 238.483 27.144ZM239.923 23.904C240.499 23.904 241.075 23.58 241.651 22.932C242.227 22.26 242.731 21.36 243.163 20.232C243.595 19.08 243.907 17.808 244.099 16.416C243.451 16.272 243.127 15.768 243.127 14.904C243.127 13.92 243.499 13.272 244.243 12.96C244.195 12.168 244.075 11.628 243.883 11.34C243.691 11.028 243.355 10.872 242.875 10.872C242.083 10.872 241.315 11.448 240.571 12.6C239.827 13.752 239.227 15.132 238.771 16.74C238.315 18.348 238.087 19.764 238.087 20.988C238.087 22.14 238.219 22.92 238.483 23.328C238.747 23.712 239.227 23.904 239.923 23.904ZM254.303 27.144C252.527 27.144 251.123 26.688 250.091 25.776C249.059 24.864 248.543 23.424 248.543 21.456C248.543 19.824 248.879 18.012 249.551 16.02C250.223 14.028 251.303 12.312 252.791 10.872C254.279 9.408 256.151 8.676 258.407 8.676C261.479 8.676 263.015 10.596 263.015 14.436V14.472C263.087 14.496 263.219 14.508 263.411 14.508C264.203 14.508 265.115 14.304 266.147 13.896C267.179 13.464 268.115 12.948 268.955 12.348L269.279 13.32C268.583 14.064 267.671 14.7 266.543 15.228C265.439 15.732 264.227 16.092 262.907 16.308C262.715 18.492 262.223 20.4 261.431 22.032C260.639 23.664 259.619 24.924 258.371 25.812C257.123 26.7 255.767 27.144 254.303 27.144ZM255.743 23.904C256.319 23.904 256.895 23.58 257.471 22.932C258.047 22.26 258.551 21.36 258.983 20.232C259.415 19.08 259.727 17.808 259.919 16.416C259.271 16.272 258.947 15.768 258.947 14.904C258.947 13.92 259.319 13.272 260.063 12.96C260.015 12.168 259.895 11.628 259.703 11.34C259.511 11.028 259.175 10.872 258.695 10.872C257.903 10.872 257.135 11.448 256.391 12.6C255.647 13.752 255.047 15.132 254.591 16.74C254.135 18.348 253.907 19.764 253.907 20.988C253.907 22.14 254.039 22.92 254.303 23.328C254.567 23.712 255.047 23.904 255.743 23.904ZM278.403 27.216C276.915 27.216 275.787 26.868 275.019 26.172C274.251 25.452 273.867 24.432 273.867 23.112C273.867 22.536 273.939 21.912 274.083 21.24L274.371 19.836C274.467 19.428 274.515 18.984 274.515 18.504C274.515 17.352 274.083 16.776 273.219 16.776C272.835 16.776 272.427 16.884 271.995 17.1C271.587 17.316 271.107 17.652 270.555 18.108L268.683 27H263.499L268.719 2.52L274.047 1.8L271.347 14.472L278.295 9H281.859L274.659 14.004C275.019 13.908 275.415 13.86 275.847 13.86C277.143 13.86 278.127 14.256 278.799 15.048C279.471 15.84 279.807 16.848 279.807 18.072C279.807 18.576 279.759 19.032 279.663 19.44L279.267 21.24C279.147 21.672 279.087 22.056 279.087 22.392C279.087 23.28 279.555 23.724 280.491 23.724C281.211 23.724 281.787 23.472 282.219 22.968C282.651 22.44 283.083 21.636 283.515 20.556H285.027C283.539 24.996 281.331 27.216 278.403 27.216ZM288.288 27.216C286.656 27.216 285.408 26.82 284.544 26.028C283.68 25.212 283.248 24.072 283.248 22.608C283.248 21.888 283.332 21.204 283.5 20.556L287.352 2.52L292.68 1.8L290.952 9.9C291.624 9.492 292.176 9.228 292.608 9.108C293.04 8.964 293.472 8.892 293.904 8.892C296.736 8.892 298.152 10.944 298.152 15.048C298.152 16.704 297.828 18.48 297.18 20.376C296.556 22.248 295.5 23.856 294.012 25.2C292.548 26.544 290.64 27.216 288.288 27.216ZM290.304 23.724C291.048 23.724 291.744 23.268 292.392 22.356C293.04 21.42 293.556 20.268 293.94 18.9C294.324 17.508 294.516 16.176 294.516 14.904C294.516 13.944 294.348 13.128 294.012 12.456C293.676 11.784 293.208 11.448 292.608 11.448C292.248 11.448 291.84 11.508 291.384 11.628C290.952 11.724 290.652 11.88 290.484 12.096L288.504 21.24C288.432 21.528 288.396 21.804 288.396 22.068C288.396 23.172 289.032 23.724 290.304 23.724ZM304.752 27.144C302.976 27.144 301.572 26.688 300.54 25.776C299.508 24.864 298.992 23.424 298.992 21.456C298.992 19.824 299.328 18.012 300 16.02C300.672 14.028 301.752 12.312 303.24 10.872C304.728 9.408 306.6 8.676 308.856 8.676C311.928 8.676 313.464 10.596 313.464 14.436V14.472C313.536 14.496 313.668 14.508 313.86 14.508C314.652 14.508 315.564 14.304 316.596 13.896C317.628 13.464 318.564 12.948 319.404 12.348L319.728 13.32C319.032 14.064 318.12 14.7 316.992 15.228C315.888 15.732 314.676 16.092 313.356 16.308C313.164 18.492 312.672 20.4 311.88 22.032C311.088 23.664 310.068 24.924 308.82 25.812C307.572 26.7 306.216 27.144 304.752 27.144ZM306.192 23.904C306.768 23.904 307.344 23.58 307.92 22.932C308.496 22.26 309 21.36 309.432 20.232C309.864 19.08 310.176 17.808 310.368 16.416C309.72 16.272 309.396 15.768 309.396 14.904C309.396 13.92 309.768 13.272 310.512 12.96C310.464 12.168 310.344 11.628 310.152 11.34C309.96 11.028 309.624 10.872 309.144 10.872C308.352 10.872 307.584 11.448 306.84 12.6C306.096 13.752 305.496 15.132 305.04 16.74C304.584 18.348 304.356 19.764 304.356 20.988C304.356 22.14 304.488 22.92 304.752 23.328C305.016 23.712 305.496 23.904 306.192 23.904ZM320.572 27.144C318.796 27.144 317.392 26.688 316.36 25.776C315.328 24.864 314.812 23.424 314.812 21.456C314.812 19.824 315.148 18.012 315.82 16.02C316.492 14.028 317.572 12.312 319.06 10.872C320.548 9.408 322.42 8.676 324.676 8.676C327.748 8.676 329.284 10.596 329.284 14.436V14.472C329.356 14.496 329.488 14.508 329.68 14.508C330.472 14.508 331.384 14.304 332.416 13.896C333.448 13.464 334.384 12.948 335.224 12.348L335.548 13.32C334.852 14.064 333.94 14.7 332.812 15.228C331.708 15.732 330.496 16.092 329.176 16.308C328.984 18.492 328.492 20.4 327.7 22.032C326.908 23.664 325.888 24.924 324.64 25.812C323.392 26.7 322.036 27.144 320.572 27.144ZM322.012 23.904C322.588 23.904 323.164 23.58 323.74 22.932C324.316 22.26 324.82 21.36 325.252 20.232C325.684 19.08 325.996 17.808 326.188 16.416C325.54 16.272 325.216 15.768 325.216 14.904C325.216 13.92 325.588 13.272 326.332 12.96C326.284 12.168 326.164 11.628 325.972 11.34C325.78 11.028 325.444 10.872 324.964 10.872C324.172 10.872 323.404 11.448 322.66 12.6C321.916 13.752 321.316 15.132 320.86 16.74C320.404 18.348 320.176 19.764 320.176 20.988C320.176 22.14 320.308 22.92 320.572 23.328C320.836 23.712 321.316 23.904 322.012 23.904ZM344.673 27.216C343.185 27.216 342.057 26.868 341.289 26.172C340.521 25.452 340.137 24.432 340.137 23.112C340.137 22.536 340.209 21.912 340.353 21.24L340.641 19.836C340.737 19.428 340.785 18.984 340.785 18.504C340.785 17.352 340.353 16.776 339.489 16.776C339.105 16.776 338.697 16.884 338.265 17.1C337.857 17.316 337.377 17.652 336.825 18.108L334.953 27H329.769L334.989 2.52L340.317 1.8L337.617 14.472L344.565 9H348.129L340.929 14.004C341.289 13.908 341.685 13.86 342.117 13.86C343.413 13.86 344.397 14.256 345.069 15.048C345.741 15.84 346.077 16.848 346.077 18.072C346.077 18.576 346.029 19.032 345.933 19.44L345.537 21.24C345.417 21.672 345.357 22.056 345.357 22.392C345.357 23.28 345.825 23.724 346.761 23.724C347.289 23.724 347.625 23.688 347.769 23.616C347.913 23.544 347.997 23.508 348.021 23.508C347.973 24.3 347.745 24.972 347.337 25.524C346.953 26.076 346.497 26.496 345.969 26.784C345.465 27.072 345.033 27.216 344.673 27.216Z" fill="white"/>
</svg>
